<svg width="16" height="16" viewBox="0 0 16 16" xmlns="http://www.w3.org/2000/svg"><title>badge2 16x16</title><g fill="none" fill-rule="evenodd"><path d="M.512 9.112c.854.716 1.446 2.186 1.329 3.29l.017-.157c-.118 1.108.684 1.92 1.791 1.823l-.158.013c1.11-.098 2.569.524 3.266 1.387l-.1-.123c.702.867 1.844.873 2.556.022l-.101.121c.716-.854 2.186-1.446 3.29-1.329l-.158-.017c1.11.118 1.921-.684 1.823-1.79l.014.158c-.098-1.111.524-2.57 1.387-3.267l-.123.1c.866-.702.873-1.844.022-2.556l.121.101c-.854-.716-1.446-2.185-1.329-3.29l-.017.158c.118-1.11-.684-1.92-1.791-1.823l.158-.014c-1.11.099-2.569-.523-3.266-1.386l.1.122C8.64-.21 7.498-.218 6.786.633l.101-.121c-.716.854-2.186 1.446-3.29 1.33l.158.016c-1.11-.118-1.92.685-1.823 1.791l-.014-.158c.098 1.11-.524 2.569-1.387 3.267l.123-.1C-.21 7.36-.218 8.5.633 9.213l-.121-.101z" fill="#FF9500"/><path d="M8.027 10.367L6.08 11.555c-.473.29-.75.08-.623-.452l.529-2.218L4.255 7.4c-.42-.36-.307-.689.238-.732l2.273-.183.876-2.105c.212-.511.56-.505.77 0l.876 2.105 2.273.183c.552.044.653.377.238.732l-1.732 1.484.529 2.218c.128.539-.157.737-.623.452l-1.946-1.188z" fill="#FFF"/></g></svg>